# xmcd
#
# Track frame offsets:
#	150
#	13990
#	25612
#	39298
#	50316
#	61809
#	74729
#	87963
#	99204
#	111470
#	123050
#	151160
#	161649
#	179567
#	196208
#	212289
#	235919
#	250505
#	262691
#	273066
#	286059
#
# Disc length: 3996 seconds
#
# Revision: 0
# Processed by: cddbd v1.5.2PL0 Copyright (c) Steve Scherf et al.
# Submitted via: EZCDAudioConverter 2.0.5.1
#
DISCID=090f9a15
DTITLE=B.B. King - The Indispensable B.B. King 1949-1962 - CD 3
DYEAR=2013
DGENRE=Blues
TTITLE0=You Upset Me Baby
TTITLE1=Did You Ever Love A Woman
TTITLE2=Sweet Little Angel
TTITLE3=You Don't Know
TTITLE4=I Stay In The Mood
TTITLE5=Be Careful With A Fool
TTITLE6=On My Word Of Honor
TTITLE7=Days Of Old
TTITLE8=Worry, Worry
TTITLE9=Please Accept My Love
TTITLE10=Sweet Sixteen (Parts 1 and 2)
TTITLE11=Bad Luck
TTITLE12=Hold That Train
TTITLE13=Walkin' Dr. Bill
TTITLE14=My Own Fault
TTITLE15=You Done Lost Your Good Things Now
TTITLE16=Downhearted
TTITLE17=I'll Survive
TTITLE18=Peace Of Mind
TTITLE19=Going Down Slow
TTITLE20=Down Now
EXTD=
EXTT0=
EXTT1=
EXTT2=
EXTT3=
EXTT4=
EXTT5=
EXTT6=
EXTT7=
EXTT8=
EXTT9=
EXTT10=
EXTT11=
EXTT12=
EXTT13=
EXTT14=
EXTT15=
EXTT16=
EXTT17=
EXTT18=
EXTT19=
EXTT20=
PLAYORDER=
